<svg xmlns="http://www.w3.org/2000/svg" class="css-8aabad" viewBox="0 0 406 60"><defs><linearGradient id="a"><stop offset="0" stop-color="#6d7cff"/><stop offset="1" stop-color="#ff51ff"/></linearGradient></defs><g><g fill="#fff" style="height:90px"><path xmlns="http://www.w3.org/2000/svg" d="M539 0c91 0 175 29 243 78 100-39 170-51 212-42 47 10 68 39 64 82-2 28-18 63-47 101-78 102-263 247-525 377 166-22 322-77 467-171-6 223-189 402-414 402-111 0-212-44-286-116-88 33-150 42-188 34-47-10-68-39-65-82 2-29 19-63 48-102 78-101 262-247 525-377-156 21-303 71-440 155C168 146 337 0 539 0zM197 645c-17-25-31-52-43-81-16 17-30 33-41 47-17 23-28 41-30 54 21 4 59-2 114-20zm653-505c20 24 38 49 53 77 17-17 31-33 43-48 17-23 28-41 30-53-23-5-64 2-126 24z" class="fil0" style="fill:url(#a);height:108px" transform="matrix(.06122 0 0 .06122 .017 5)"/></g></g><path xmlns="http://www.w3.org/2000/svg" fill="#fff" d="M85 0h3v60h-3z"/><path fill="#fff" d="M132.592 29.938c0 2.785-.646 5.329-1.897 7.63a14.392 14.392 0 0 1-5.33 5.45c-2.3 1.332-4.803 2.018-7.63 2.018-2.058 0-3.996-.403-5.853-1.17-1.817-.767-3.391-1.817-4.683-3.19-1.292-1.292-2.302-2.866-3.069-4.723-.726-1.857-1.13-3.795-1.13-5.854 0-2.786.646-5.33 1.938-7.63 1.251-2.301 3.028-4.159 5.329-5.49 2.26-1.333 4.804-1.979 7.59-1.979 2.059 0 3.997.363 5.854 1.13 1.816.808 3.39 1.858 4.683 3.15 1.292 1.372 2.341 2.947 3.068 4.763.767 1.857 1.13 3.795 1.13 5.895zm-3.189.161c0-3.31-1.211-6.379-3.23-8.6s-5.046-3.633-8.437-3.633c-2.18 0-4.159.566-5.935 1.615-1.776 1.13-3.149 2.584-4.118 4.4-.969 1.858-1.453 3.876-1.453 6.057 0 3.27 1.21 6.378 3.23 8.558 2.018 2.22 5.046 3.634 8.397 3.634 2.18 0 4.158-.565 5.934-1.656 1.817-1.05 3.19-2.543 4.159-4.36s1.453-3.835 1.453-6.015zm31.211-14.816h3.028v29.43h-3.35l-17.562-25.03v25.03h-3.069v-29.43h3.594l17.36 24.747V15.283zm33.315 2.906v26.525h-3.068V18.189h-9.85v-2.906h22.769v2.906h-9.851zM229.5 44.714V31.229h-16.754v13.485h-3.108V15.283h3.108v13.04H229.5v-13.04h3.11v29.43h-3.11zm12.237 0V15.283h18.41v2.866h-15.301v10.174h14.009v2.866h-14.01v10.658h15.463v2.867h-18.57zm37.392 0V15.283h18.41v2.866h-15.301v10.174h14.009v2.866h-14.01v10.658H297.7v2.867h-18.57zm25.923 0V15.283h8.76c2.261 0 4.36.363 6.299 1.13 1.937.727 3.593 1.776 4.925 3.068 2.705 2.624 4.32 6.339 4.32 10.457 0 2.14-.404 4.158-1.211 6.015s-1.938 3.391-3.311 4.683c-2.786 2.543-6.742 4.078-11.021 4.078h-8.761zm3.109-26.525v23.618h5.53c2.463 0 4.643-.525 6.5-1.534 1.898-1.01 3.392-2.382 4.4-4.159 1.05-1.776 1.575-3.835 1.575-6.096 0-3.35-1.251-6.338-3.39-8.478-2.1-2.1-5.37-3.35-9.085-3.35h-5.53zm54.02 5.531-2.946 1.05c-.364-1.05-.848-2.14-2.019-3.472-.565-.606-1.211-1.211-1.938-1.696-1.453-1.009-3.714-1.736-6.177-1.736-2.22 0-4.198.525-5.975 1.656s-3.149 2.583-4.117 4.44c-.97 1.817-1.454 3.795-1.454 5.976 0 3.31 1.13 6.378 3.068 8.599 1.979 2.22 5.047 3.593 8.519 3.593 2.624 0 5.127-.848 7.024-2.301s3.19-3.795 3.351-6.5h-12.273v-2.867h15.584v1.13c0 3.715-1.332 7.066-3.634 9.488-2.341 2.422-5.934 3.916-10.093 3.916-4.4 0-8.235-1.615-10.738-4.28s-3.997-6.459-3.997-10.617c0-2.786.646-5.37 1.938-7.67s3.068-4.119 5.329-5.45S346.437 15 349.183 15c3.471 0 6.54.969 8.639 2.665 2.14 1.655 3.552 3.673 4.36 6.055zm7.433 20.994V15.283h18.41v2.866h-15.301v10.174h14.009v2.866h-14.01v10.658h15.463v2.867h-18.57z"/></svg>